<?xml version="1.0" encoding="UTF-8"?>
<svg width="229px" height="64px" viewBox="0 0 229 64" version="1.1" xmlns="http://www.w3.org/2000/svg" xmlns:xlink="http://www.w3.org/1999/xlink">
    <!-- Generator: sketchtool 55.2 (78181) - https://sketchapp.com -->
    <title>3CF5931C-3A52-4726-8033-EEB7FE8F6C5F</title>
    <desc>Created with sketchtool.</desc>
    <g id="Symbols" stroke="none" stroke-width="1" fill="none" fill-rule="evenodd">
        <g id="symbol_footer" transform="translate(-1091.000000, -332.000000)">
            <g id="Logo" transform="translate(1091.000000, 332.000000)">
                <g id="Group">
                    <path d="M127.018985,16.1703385 C126.872891,14.3197793 125.903114,13.8692852 125.081224,13.9456925 C123.906646,14.0547828 123.259531,14.8824553 123.259531,16.210088 C123.259531,19.8387739 130.661474,21.1655233 130.661474,27.1619533 C130.661474,30.8021225 128.311423,32.8205128 124.904208,32.8205128 C121.527466,32.8205128 119.589705,30.1559726 119.442267,27.0316634 L122.90774,26.4292379 C123.055179,28.5757099 123.906646,29.6237712 125.081224,29.6047798 C126.344085,29.5853467 127.196001,28.8804559 127.196001,27.5863895 C127.196001,23.2841706 119.794057,22.5267222 119.794057,16.5254338 C119.794057,13.1900107 121.850576,11.0819632 125.433014,10.6919767 C128.399259,10.3691225 130.162245,12.4051793 130.484459,15.4906224 L127.018985,16.1703385 Z M136.498036,24.4174467 L139.435151,24.2986801 L137.995274,14.6062796 L137.936568,14.6111004 L136.498036,24.4174467 Z M135.322562,32.7898296 L131.798382,32.7950886 L135.704826,10.3201665 L140.227912,9.83852658 L144.13346,32.7771202 L140.60928,32.781941 L139.963509,27.7052197 L135.969229,27.8042649 L135.322562,32.7898296 Z M160.603625,7.37889494 L160.603625,32.7733722 L157.431684,32.7778041 L157.431684,13.2037717 L157.372977,13.2086468 L154.084071,32.7826792 L152.321533,32.7853384 L149.032627,13.9133226 L148.97392,13.9181977 L148.97392,32.7902135 L145.801979,32.7950886 L145.801979,8.97394413 L150.58902,8.45806826 L153.173001,22.5604482 L153.231259,22.557789 L155.816136,7.89477081 L160.603625,7.37889494 Z M163.924281,32.7950886 L163.924281,6.79992122 L173.674483,5.73914051 L173.674483,9.78451344 L167.565426,10.3509193 L167.565426,17.1477901 L172.26508,16.8422173 L172.26508,20.8643255 L167.565426,21.0951829 L167.565426,28.8423271 L174.08498,28.7282406 L174.08498,32.7798771 L163.924281,32.7950886 Z M177.104137,32.7950886 L177.104137,5.31688015 L180.480879,4.94844571 L184.916578,20.6632291 L184.974388,20.6605366 L184.974388,4.45839649 L188.263742,4.09938608 L188.263742,32.7784844 L185.091353,32.7834208 L180.45175,15.4014827 L180.393043,15.4055216 L180.393043,32.7901522 L177.104137,32.7950886 Z M198.521403,32.7950886 L198.521403,3.54934081 L208.682102,2.45963165 L208.682102,6.99575001 L202.162548,7.59154001 L202.162548,15.2243552 L207.037425,14.9112457 L207.037425,19.4213451 L202.162548,19.6568387 L202.162548,32.7897966 L198.521403,32.7950886 Z M211.70126,32.7950886 L211.70126,2.03113088 L215.343749,1.63975443 L215.343749,32.7897818 L211.70126,32.7950886 Z M221.815368,5.56581005 L218.291188,5.89085336 L218.291188,1.15768849 L228.981589,0 L228.981589,4.90459182 L225.457857,5.23008039 L225.457857,32.7901907 L221.815368,32.7950886 L221.815368,5.56581005 Z" id="Combined-Shape" fill="#053D63"></path>
                    <path d="M7.60060375,39.4377885 C7.45404925,36.7178103 6.48121513,35.9403514 5.65628416,35.951632 C4.47845357,35.9683273 3.82974764,37.1329364 3.82974764,39.1318586 C3.82974764,44.5948273 11.2545759,46.8676425 11.2545759,55.3867513 C11.2545759,60.5586805 8.8971165,63.6527233 5.47916002,63.9812144 C2.09177318,64.3065469 0.147453601,60.3628493 -1.00364161e-13,55.5239233 L3.47639846,54.524011 C3.62430161,57.7588357 4.47845357,59.288485 5.65628416,59.1919231 C6.92402549,59.0876903 7.77817744,58.0088138 7.77817744,56.1199902 C7.77817744,49.8403061 0.352899624,48.5443908 0.352899624,39.2568476 C0.352899624,34.096199 2.41590137,31.1794872 6.00963334,31.1794872 C8.98522902,31.1794872 10.7533236,34.3570064 11.0774518,38.7889284 L7.60060375,39.4377885 Z M17.1095369,50.5582034 L20.0559116,50.3813236 L18.6110461,37.299438 L18.5526042,37.3007917 L17.1095369,50.5582034 Z M15.9299081,62.1059275 L12.3950677,62.441187 L16.3138269,31.1849019 L20.851172,31.1794872 L24.7690322,61.2680046 L21.2337422,61.603264 L20.5859354,54.9080026 L16.5790636,55.204908 L15.9299081,62.1059275 Z M42.1179063,31.1794872 L42.1179063,59.7058672 L38.9359655,60.0072848 L38.9359655,37.490757 L38.8775235,37.4921107 L35.5777996,60.3258489 L33.8097051,60.493253 L30.5099812,37.6739539 L30.4515392,37.6753076 L30.4515392,60.8118172 L27.2691489,61.1132348 L27.2691489,31.1984386 L32.0717306,31.1925727 L34.6634075,48.2695954 L34.722299,48.2659856 L37.3153245,31.1858043 L42.1179063,31.1794872 Z M45.4485814,59.4035471 L45.4485814,31.1921215 L55.2295204,31.1794872 L55.2295204,35.2630642 L49.1012049,35.3564676 L49.1012049,42.5354411 L53.8156742,42.349988 L53.8156742,46.4534189 L49.1012049,46.7047507 L49.1012049,54.8876975 L55.6413116,54.3593143 L55.6413116,58.4370254 L45.4485814,59.4035471 Z M57.8436491,58.1820838 L57.8436491,31.1939263 L61.2310359,31.1898653 L65.6802685,46.2020871 L65.7391601,46.1989286 L65.7391601,31.1839994 L69.0384344,31.1794872 L69.0384344,57.120805 L65.8564936,57.4222226 L61.201815,41.2020742 L61.1429234,41.2043303 L61.1429234,57.8693856 L57.8436491,58.1820838 Z M79.3284331,56.1908324 L79.3284331,31.1925727 L89.5211632,31.1794872 L89.5211632,34.7766447 L82.9810566,34.8763652 L82.9810566,41.227794 L87.8713013,41.0351213 L87.8713013,44.6557426 L82.9810566,44.91655 L82.9810566,55.8447436 L79.3284331,56.1908324 Z M92.5498386,31.1939263 L96.2024621,31.1889629 L96.2024621,48.8782966 C96.2024621,50.5974599 96.8205984,51.3907117 98.1467817,51.2819667 C99.4725154,51.1727705 100.092,50.2910788 100.092,48.5989889 L100.092,31.1839994 L103.744624,31.1794872 L103.744624,48.1784482 C103.744624,52.0824381 101.62318,54.4260954 98.1467817,54.7604524 C94.6699336,55.0943581 92.5498386,53.059338 92.5498386,48.9757609 L92.5498386,31.1939263 Z M107.42392,53.5908798 L107.42392,31.1939263 L110.811307,31.1894141 L115.260989,43.5759636 L115.318981,43.572805 L115.318981,31.1835482 L118.618705,31.1794872 L118.618705,52.529601 L115.436315,52.8314699 L110.782086,39.4788498 L110.723194,39.4806547 L110.723194,53.2786328 L107.42392,53.5908798 Z" id="Combined-Shape" fill="#FEFEFE"></path>
                </g>
            </g>
        </g>
    </g>
</svg>